<svg width="100%" viewBox="0 0 124 39" fill="none" xmlns="http://www.w3.org/2000/svg">
<path d="M75.8419 18.9976V0H70.3362V20.9224C70.3362 24.1657 72.9466 26.7946 76.1675 26.7946L78.0851 26.7939V21.2495H78.0786C76.8439 21.2495 75.8419 20.2413 75.8419 18.9976Z" fill="currentColor"></path>
<path d="M84.163 0.000304889C82.5014 0.000304889 81.1545 1.35657 81.1545 3.03003C81.1545 4.70331 82.5014 6.0603 84.163 6.0603C85.8247 6.0603 87.1723 4.70331 87.1723 3.03003C87.1723 1.35657 85.8247 0.000304889 84.163 0.000304889Z" fill="currentColor"></path>
<path d="M86.9163 9.05489H81.4107V26.7946H86.9163V9.05489Z" fill="currentColor"></path>
<path d="M90.7647 26.7937V9.05472C90.7647 4.05406 94.7901 0.000304889 99.7557 0.000304889V5.54484C97.8309 5.54484 96.2703 7.11638 96.2703 9.05472V14.3659H99.7557V18.59H96.2703V26.7937H90.7647Z" fill="currentColor"></path>
<path d="M33.2371 33.4556C30.5191 33.4556 28.3152 31.237 28.3152 28.4992H22.8096C22.8096 34.2984 27.4783 39 33.2371 39C38.9959 39 43.6646 34.2984 43.6646 28.4992H38.159C38.159 31.237 35.9559 33.4556 33.2371 33.4556Z" fill="currentColor"></path>
<path fill-rule="evenodd" clip-rule="evenodd" d="M38.9292 6.5696C38.9292 4.89613 40.2769 3.53915 41.9378 3.53915C43.6001 3.53915 44.9471 4.89613 44.9471 6.5696C44.9471 8.24288 43.6001 9.59932 41.9378 9.59932C41.4042 9.59932 40.9036 9.45774 40.4684 9.21133C42.4376 11.1223 43.6646 13.8024 43.6646 16.7737C43.6646 22.573 38.9959 27.2745 33.2371 27.2745C27.4783 27.2745 22.8096 22.573 22.8096 16.7737C22.8096 10.9744 27.4783 6.27285 33.2371 6.27285C35.6188 6.27285 37.8125 7.07799 39.5682 8.43136C39.1696 7.91717 38.9292 7.27226 38.9292 6.5696ZM28.3152 16.7737C28.3152 19.5108 30.5191 21.7302 33.2371 21.7302C35.9559 21.7302 38.159 19.5108 38.159 16.7737C38.159 14.0365 35.9559 11.8172 33.2371 11.8172C30.5191 11.8172 28.3152 14.0365 28.3152 16.7737Z" fill="currentColor"></path>
<path fill-rule="evenodd" clip-rule="evenodd" d="M10.4283 6.27278C4.66874 6.27278 0 10.9736 0 16.7736C0 22.5731 4.66874 27.2746 10.4283 27.2746C14.983 27.2746 18.8544 24.3316 20.2744 20.2315H14.6646C13.665 21.4723 12.1388 22.266 10.4283 22.266C8.04804 22.266 6.0256 20.7314 5.28056 18.5907L20.696 18.5936C20.7986 18.0021 20.856 17.3948 20.856 16.7736C20.856 10.9736 16.1872 6.27278 10.4283 6.27278ZM5.52435 14.3665C6.41071 12.5394 8.27332 11.2805 10.4283 11.2805C12.5827 11.2805 14.4453 12.5394 15.3316 14.3665H5.52435Z" fill="currentColor"></path>
<path fill-rule="evenodd" clip-rule="evenodd" d="M112.147 6.27278C117.906 6.27278 122.575 10.9736 122.575 16.7736C122.575 17.3948 122.519 18.0021 122.416 18.5936L107 18.5907C107.745 20.7314 109.768 22.266 112.147 22.266C113.859 22.266 115.385 21.4723 116.385 20.2315H121.994C120.574 24.3316 116.703 27.2746 112.147 27.2746C106.389 27.2746 101.72 22.5731 101.72 16.7736C101.72 10.9736 106.389 6.27278 112.147 6.27278ZM112.147 11.2805C109.992 11.2805 108.13 12.5394 107.244 14.3665H117.051C116.165 12.5394 114.303 11.2805 112.147 11.2805Z" fill="currentColor"></path>
<path d="M51.1381 28.4992C51.1381 31.237 53.3419 33.4556 56.06 33.4556C58.7787 33.4556 60.9819 31.237 60.9819 28.4992H66.4875C66.4875 34.2984 61.8188 39 56.06 39C50.3012 39 45.6324 34.2984 45.6324 28.4992H51.1381Z" fill="currentColor"></path>
<path fill-rule="evenodd" clip-rule="evenodd" d="M64.7614 3.53915C63.0998 3.53915 61.7521 4.89613 61.7521 6.5696C61.7521 7.27226 61.9925 7.91717 62.391 8.43136C60.6354 7.07799 58.4416 6.27285 56.06 6.27285C50.3012 6.27285 45.6324 10.9744 45.6324 16.7737C45.6324 22.573 50.3012 27.2745 56.06 27.2745C61.8188 27.2745 66.4875 22.573 66.4875 16.7737C66.4875 13.8024 65.2605 11.1223 63.2912 9.21133C63.7265 9.45774 64.227 9.59932 64.7614 9.59932C66.423 9.59932 67.77 8.24288 67.77 6.5696C67.77 4.89613 66.423 3.53915 64.7614 3.53915ZM56.06 21.7302C53.3419 21.7302 51.1381 19.5108 51.1381 16.7737C51.1381 14.0365 53.3419 11.8172 56.06 11.8172C58.7787 11.8172 60.9819 14.0365 60.9819 16.7737C60.9819 19.5108 58.7787 21.7302 56.06 21.7302Z" fill="currentColor"></path>
<path fill-rule="evenodd" clip-rule="evenodd" d="M123.098 8.54168L122.741 8.04849C122.926 8.00956 123.08 7.87522 123.08 7.56381C123.08 7.31251 122.921 7.07063 122.577 7.07063H121.975V8.54168H122.323V8.06153H122.375L122.711 8.54168H123.098ZM122.323 7.7885V7.3862H122.526C122.672 7.3862 122.723 7.50316 122.723 7.58119C122.723 7.66792 122.672 7.7885 122.513 7.7885H122.323Z" fill="#303A4D"></path>
<path fill-rule="evenodd" clip-rule="evenodd" d="M122.495 9.33468C123.334 9.33468 124 8.65013 124 7.8066C124 6.96236 123.334 6.274 122.495 6.274C121.658 6.274 120.995 6.95729 120.995 7.8066C120.995 8.65013 121.658 9.33468 122.495 9.33468ZM122.495 6.54196C123.183 6.54196 123.733 7.10883 123.733 7.8066C123.733 8.49913 123.183 9.066 122.495 9.066C121.808 9.066 121.257 8.49913 121.257 7.8066C121.257 7.1139 121.808 6.54196 122.495 6.54196Z" fill="#303A4D"></path>
</svg>